<svg width="22" height="35" viewBox="0 0 22 35" fill="none" xmlns="http://www.w3.org/2000/svg">
<path d="M21.8004 4.025C22.0662 3.7625 22.0662 3.36875 21.8004 3.10625L21.7561 3.0625L17.9012 0.13125C17.7683 0.0437501 17.6353 0 17.5024 0H2.96914C2.61467 0 2.30451 0.30625 2.30451 0.65625V5.46875C2.30451 5.81875 2.61467 6.125 2.96914 6.125H7.00124L3.72239 10.8063C3.50085 11.1125 3.58946 11.5062 3.89962 11.725C4.20978 11.9437 4.60856 11.8563 4.83011 11.55L8.59636 6.16875L11.6094 7.56875V10.5H10.1472C9.92562 10.5 9.70407 10.5875 9.61546 10.8063L0.665082 23.9312C0.576465 24.0187 0.532156 24.15 0.576465 24.2812V34.3438C0.576465 34.6937 0.886626 35 1.2411 35H19.4077C19.7622 35 20.0723 34.6937 20.0723 34.3438V11.1562C20.0723 10.8062 19.7622 10.5 19.4077 10.5H17.8126V8.00625L21.8004 4.025ZM1.86142 33.6875V25.375H18.6988V33.6875H1.86142ZM18.6988 24.0625H2.17158L10.5016 11.8125H18.6988V24.0625ZM12.9386 10.5V7.13125C12.9386 6.86875 12.8057 6.65 12.5398 6.5625L8.99513 4.9C8.90652 4.85625 8.8179 4.85625 8.72928 4.85625H3.63377V1.3125H17.2366L20.2939 3.63125L16.6606 7.2625C16.5276 7.39375 16.4833 7.56875 16.4833 7.74375V10.5H12.9386Z" fill="#007198"/>
</svg>
