<svg width="26" height="34" viewBox="0 0 26 34" fill="none" xmlns="http://www.w3.org/2000/svg">
<path d="M21.6848 12.4707C21.6881 12.4352 21.6881 12.3996 21.6848 12.3641V5.80163C21.6848 2.60217 18.6109 0 14.837 0H10.6522C6.87827 0 3.80435 2.60217 3.80435 5.80163V21.6848H0.570657C0.41931 21.6848 0.274163 21.7449 0.167145 21.8519C0.0601266 21.9589 4.5483e-06 22.1041 4.5483e-06 22.2554V25.3217C-0.000352574 25.4112 0.0203254 25.4995 0.0603697 25.5795C0.100414 25.6595 0.158703 25.7289 0.230532 25.7822C0.302362 25.8356 0.38572 25.8712 0.473879 25.8864C0.562038 25.9016 0.652529 25.8958 0.738048 25.8696H8.17935C8.3307 25.8696 8.47585 25.8094 8.58286 25.7024C8.68988 25.5954 8.75 25.4503 8.75 25.2989V22.2554C8.75 22.1041 8.68988 21.9589 8.58286 21.8519C8.47585 21.7449 8.3307 21.6848 8.17935 21.6848H4.94566V5.80163C4.94566 3.22989 7.50598 1.1413 10.6522 1.1413H14.837C17.9832 1.1413 20.5435 3.22989 20.5435 5.80163V11.7516C18.609 10.738 16.4499 10.2289 14.2663 10.2717C14.115 10.2717 13.9698 10.3319 13.8628 10.4389C13.7558 10.5459 13.6957 10.691 13.6957 10.8424V26.0598C13.6957 26.2111 13.7558 26.3563 13.8628 26.4633C13.9698 26.5703 14.115 26.6304 14.2663 26.6304C14.4177 26.6304 14.5628 26.5703 14.6698 26.4633C14.7768 26.3563 14.837 26.2111 14.837 26.0598V11.413C20.6348 11.6261 24.3478 15.088 24.3478 20.3571V31.9565H20.3533C20.2019 31.9565 20.0568 32.0166 19.9498 32.1237C19.8427 32.2307 19.7826 32.3758 19.7826 32.5272C19.7826 32.6785 19.8427 32.8237 19.9498 32.9307C20.0568 33.0377 20.2019 33.0978 20.3533 33.0978H24.9185C25.0698 33.0978 25.215 33.0377 25.322 32.9307C25.429 32.8237 25.4891 32.6785 25.4891 32.5272V20.3533C25.4891 16.9978 24.0815 14.2435 21.6848 12.4707ZM7.6087 24.7283H1.14131V22.8261H7.6087V24.7283Z" fill="#007198"/>
</svg>
